<?xml version="1.0" encoding="utf-8"?>
<!-- Generator: Adobe Illustrator 16.0.0, SVG Export Plug-In . SVG Version: 6.00 Build 0)  -->
<!DOCTYPE svg PUBLIC "-//W3C//DTD SVG 1.1//EN" "http://www.w3.org/Graphics/SVG/1.1/DTD/svg11.dtd">
<svg version="1.1" id="Calque_1" xmlns="http://www.w3.org/2000/svg" xmlns:xlink="http://www.w3.org/1999/xlink" x="0px" y="0px"
	 width="39.891px" height="27.75px" viewBox="0 0 39.891 27.75" enable-background="new 0 0 39.891 27.75" xml:space="preserve">
<g>
	<g>
		<g>
			<g>
				<path fill="#7289DA" d="M26.342,19.622c0.361-0.09,0.768-0.135,1.129-0.271c2.182-0.873,2.874-3.808,1.369-5.764
					c-1.188-1.55-3.432-1.701-4.801-0.301c-0.888,0.903-1.159,2.002-1.023,3.235C23.227,18.223,24.686,19.577,26.342,19.622z
					 M14.528,19.577c0.707,0,1.369-0.226,1.911-0.692c0.948-0.752,1.264-1.791,1.4-2.979c0.316-2.483-2.514-4.29-4.666-3.266
					c-1.535,0.722-2.348,2.588-1.881,4.334C11.729,18.539,13.008,19.577,14.528,19.577z M33.31,21.067
					c-8.458,4.876-16.811,4.726-25.148,0.105c0.21,0.512,1.144,1.475,2.393,2.227c0.948,0.558,1.987,1.023,2.995,1.521
					c-0.09,0.12-0.226,0.316-0.376,0.497c-0.346,0.451-0.753,0.857-1.039,1.324c-0.392,0.617-0.858,0.798-1.61,0.707
					c-3.04-0.346-5.719-1.415-7.886-3.597c-0.813-0.783-1.039-1.61-0.963-2.739C1.916,15.95,3.15,11.014,5.091,6.258
					c0.271-0.647,0.617-1.279,0.888-1.941C6.16,3.85,6.491,3.534,6.927,3.263c2.017-1.354,4.214-2.333,6.652-2.754
					c0.497-0.075,0.993-0.166,1.475-0.166c0.211-0.015,0.407,0.135,0.587,0.271c-2.017,0.692-3.958,1.415-5.765,2.483
					C9.155,3.503,8.462,4,7.755,4.467c-0.15,0.09-0.286,0.226-0.466,0.376c8.624-4.109,17.202-4.32,25.796-0.105
					c-2.303-1.866-4.967-3.01-7.735-3.913c0.195-0.437,0.496-0.527,0.918-0.481c3.024,0.286,5.704,1.399,8.142,3.115
					c0.226,0.166,0.452,0.391,0.587,0.647c1.896,3.853,3.176,7.901,3.898,12.131c0.346,1.972,0.526,3.973,0.571,5.975
					c0,0.256-0.09,0.572-0.271,0.768c-1.61,2.092-3.747,3.387-6.276,4.049c-0.963,0.256-1.986,0.331-2.979,0.466
					c-0.15,0.03-0.376-0.029-0.467-0.135c-0.677-0.828-1.339-1.61-2.001-2.453C29.789,24.167,31.745,23.039,33.31,21.067z"/>
			</g>
		</g>
	</g>
</g>
</svg>
