<?xml version="1.0" encoding="utf-8"?>
<!-- Generator: Adobe Illustrator 16.0.0, SVG Export Plug-In . SVG Version: 6.00 Build 0)  -->
<!DOCTYPE svg PUBLIC "-//W3C//DTD SVG 1.1//EN" "http://www.w3.org/Graphics/SVG/1.1/DTD/svg11.dtd">
<svg version="1.1" id="Calque_1" xmlns="http://www.w3.org/2000/svg" xmlns:xlink="http://www.w3.org/1999/xlink" x="0px" y="0px"
	 width="21.333px" height="20.072px" viewBox="0 0 21.333 20.072" enable-background="new 0 0 21.333 20.072" xml:space="preserve">
<g id="XMLID_6_">
	<g>
		<path fill="#FFFFFF" d="M91.212-8.391l-0.325,3.052h-2.441v8.853h-3.654v-8.853h-1.831v-3.052h1.831v-1.831
			c0-2.49,1.034-3.971,3.963-3.971h2.441v3.052h-1.522c-1.147,0-1.22,0.431-1.22,1.22l-0.008,1.53H91.212z"/>
	</g>
	<g>
	</g>
</g>
<g id="XMLID_1_">
	<g>
		<path fill="#FFFFFF" d="M82.267,53.019c0.781,0.775,0.787,4.616,0.787,4.639c0,0,0,1.09-0.125,2.229l-1.454-0.038
			c0.016-0.108,0.021-0.223,0.021-0.348v-0.244H80.52v0.217c0,0.282-0.032,0.467-0.092,0.549c-0.065,0.086-0.173,0.124-0.331,0.124
			c-0.152,0-0.255-0.049-0.32-0.146c-0.065-0.098-0.092-0.271-0.092-0.526v-0.905h1.812v-1.227c0-0.461-0.119-0.808-0.353-1.052
			s-0.564-0.364-0.998-0.364c-0.423,0-0.771,0.131-1.036,0.396c-0.266,0.261-0.401,0.603-0.401,1.02v2.159h-0.5v-2.311
			c0-0.391-0.076-0.694-0.233-0.9c-0.157-0.201-0.391-0.304-0.689-0.304c-0.146,0-0.293,0.037-0.434,0.113
			c-0.146,0.076-0.277,0.19-0.407,0.337v-2.105h-0.96v6.526h-0.71v-4.812h-0.944v3.656c-0.092,0.103-0.19,0.189-0.298,0.255
			c-0.104,0.07-0.195,0.103-0.261,0.103c-0.092,0-0.152-0.021-0.195-0.075c-0.038-0.049-0.06-0.131-0.06-0.244v-3.694h-0.944
			l-0.417-0.766v-0.949h-3.277l-1.27-0.081c0.114-0.554,0.271-1.015,0.494-1.231c0.781-0.775,7.329-0.786,7.329-0.786
			S81.486,52.244,82.267,53.019z"/>
		<path fill="#FFFFFF" d="M81.475,59.849l1.454,0.038c-0.103,1.003-0.293,2.05-0.662,2.414c-0.781,0.775-7.334,0.792-7.334,0.792
			s-6.548-0.017-7.329-0.792c-0.781-0.781-0.781-4.611-0.781-4.644c0-0.017,0-2.002,0.288-3.407l1.27,0.081v0.949h1.106v5.577h1.069
			v-5.577h1.102l0.417,0.766v4.025c0,0.287,0.054,0.499,0.163,0.646c0.114,0.141,0.277,0.211,0.499,0.211
			c0.174,0,0.358-0.049,0.548-0.151c0.189-0.104,0.369-0.25,0.548-0.445v0.526h0.944h0.71h0.96v-0.369
			c0.119,0.152,0.26,0.255,0.401,0.326c0.146,0.07,0.309,0.108,0.499,0.108c0.277,0,0.494-0.093,0.64-0.271
			c0.152-0.185,0.222-0.445,0.222-0.787v-0.363h0.5c0,0.467,0.125,0.83,0.363,1.096c0.244,0.267,0.581,0.396,1.003,0.396
			c0.472,0,0.825-0.125,1.063-0.374C81.317,60.429,81.432,60.174,81.475,59.849z"/>
		<path fill="#FFFFFF" d="M80.52,57.332v0.488h-0.835v-0.488c0-0.2,0.033-0.347,0.098-0.434c0.065-0.087,0.174-0.13,0.326-0.13
			c0.141,0,0.25,0.043,0.314,0.13C80.488,56.985,80.52,57.131,80.52,57.332z"/>
		<path fill="#FFFFFF" d="M80.103,44.904v5.305h-1.069v-0.585c-0.19,0.217-0.396,0.385-0.613,0.493
			c-0.212,0.114-0.418,0.174-0.619,0.174c-0.244,0-0.429-0.082-0.553-0.239c-0.125-0.157-0.19-0.396-0.19-0.71v-4.438h1.063v4.068
			c0,0.125,0.027,0.217,0.07,0.271c0.043,0.06,0.12,0.087,0.217,0.087c0.076,0,0.179-0.038,0.298-0.114
			c0.119-0.07,0.228-0.168,0.325-0.282v-4.03H80.103z"/>
		<path fill="#FFFFFF" d="M77.238,57.245v2.485c0,0.157-0.027,0.266-0.087,0.336c-0.054,0.065-0.136,0.104-0.25,0.104
			c-0.082,0-0.157-0.022-0.233-0.055c-0.07-0.032-0.146-0.092-0.222-0.168v-3c0.065-0.07,0.13-0.119,0.195-0.152
			c0.065-0.032,0.13-0.043,0.201-0.043c0.125,0,0.228,0.043,0.293,0.125C77.206,56.958,77.238,57.083,77.238,57.245z"/>
		<path fill="#FFFFFF" d="M76.197,46.151v2.74c0,0.455-0.141,0.808-0.413,1.068c-0.282,0.255-0.662,0.385-1.145,0.385
			c-0.466,0-0.841-0.136-1.118-0.396c-0.282-0.271-0.423-0.63-0.423-1.08v-2.75c0-0.412,0.146-0.737,0.434-0.981
			c0.287-0.244,0.672-0.364,1.155-0.364c0.439,0,0.803,0.125,1.085,0.386C76.056,45.414,76.197,45.745,76.197,46.151z
			 M75.112,48.972v-2.892c0-0.119-0.043-0.212-0.13-0.282s-0.201-0.108-0.342-0.108c-0.13,0-0.239,0.038-0.32,0.108
			c-0.082,0.07-0.12,0.163-0.12,0.282v2.892c0,0.141,0.038,0.255,0.114,0.336c0.076,0.076,0.185,0.12,0.326,0.12
			s0.255-0.044,0.342-0.125C75.068,49.221,75.112,49.113,75.112,48.972z"/>
		<polygon fill="#FFFFFF" points="73.012,43.021 71.618,47.225 71.618,50.208 70.419,50.208 70.419,47.361 68.987,43.021 
			70.197,43.021 70.978,45.896 71.054,45.896 71.792,43.021 		"/>
	</g>
	<g>
	</g>
</g>
<g id="XMLID_5_">
	<g>
		<path fill="#FFFFFF" d="M70.267-35.251c0.586-0.195,0.594-0.195,0.48,0.024c-0.065,0.114-0.423,0.521-0.797,0.887
			c-0.635,0.635-0.667,0.7-0.667,1.229c0,0.813-0.391,2.514-0.773,3.45c-0.716,1.741-2.254,3.548-3.784,4.459
			c-2.165,1.27-5.037,1.595-7.462,0.846c-0.806-0.252-2.189-0.895-2.189-1.009c0-0.033,0.415-0.082,0.928-0.089
			c1.074-0.024,2.14-0.326,3.051-0.854l0.61-0.366l-0.708-0.244c-0.993-0.342-1.896-1.139-2.124-1.88
			c-0.065-0.244-0.041-0.252,0.594-0.252l0.659-0.017l-0.562-0.26c-0.659-0.333-1.261-0.903-1.554-1.473
			c-0.22-0.415-0.488-1.457-0.407-1.538c0.024-0.041,0.26,0.032,0.529,0.122c0.79,0.293,0.887,0.22,0.431-0.26
			c-0.846-0.879-1.106-2.173-0.7-3.401l0.195-0.554l0.749,0.749c1.53,1.506,3.336,2.401,5.412,2.661l0.569,0.073l-0.041-0.562
			c-0.098-1.465,0.797-2.799,2.222-3.312c0.521-0.187,1.408-0.211,1.985-0.049c0.228,0.073,0.659,0.301,0.968,0.505l0.553,0.382
			l0.619-0.195c0.342-0.106,0.797-0.277,1.001-0.391c0.195-0.106,0.366-0.163,0.366-0.13c0,0.195-0.423,0.863-0.773,1.237
			C69.168-34.951,69.306-34.902,70.267-35.251z"/>
	</g>
	<g>
	</g>
</g>
<g>
	<g id="XMLID_3_">
		<g>
			<path fill="#FFFFFF" d="M7.403,13.095c0.391,0,0.741-0.122,1.042-0.374c0.513-0.407,0.675-0.968,0.756-1.611
				c0.163-1.343-1.359-2.319-2.53-1.766c-0.83,0.391-1.27,1.4-1.009,2.344C5.898,12.534,6.59,13.095,7.403,13.095z M13.792,13.128
				c0.203-0.049,0.415-0.073,0.61-0.155c1.18-0.472,1.563-2.058,0.749-3.116c-0.651-0.838-1.855-0.919-2.596-0.163
				c-0.48,0.488-0.626,1.082-0.553,1.75C12.115,12.363,12.904,13.095,13.792,13.128z M18.47,4.73
				c1.033,2.083,1.725,4.272,2.116,6.559c0.187,1.066,0.277,2.148,0.301,3.231c0,0.138-0.049,0.309-0.139,0.415
				c-0.871,1.131-2.026,1.83-3.393,2.188c-0.521,0.139-1.074,0.179-1.611,0.252c-0.089,0.017-0.211-0.016-0.26-0.073
				c-0.366-0.447-0.708-0.87-1.083-1.326c1.262-0.398,2.319-1.009,3.158-2.075c-4.573,2.637-9.082,2.556-13.589,0.058
				c0.114,0.276,0.618,0.797,1.294,1.204c0.512,0.301,1.074,0.554,1.619,0.822c-0.049,0.064-0.122,0.17-0.204,0.268
				c-0.187,0.244-0.407,0.464-0.562,0.717c-0.211,0.333-0.472,0.431-0.871,0.382c-1.644-0.187-3.092-0.765-4.272-1.944
				c-0.431-0.423-0.553-0.871-0.521-1.481c0.139-2.791,0.806-5.46,1.855-8.031c0.146-0.35,0.333-0.691,0.48-1.05
				c0.098-0.252,0.277-0.423,0.505-0.569c1.098-0.732,2.286-1.261,3.597-1.489C7.16,2.745,7.428,2.705,7.705,2.696
				C7.811,2.688,7.916,2.77,8.014,2.843c-1.09,0.374-2.148,0.765-3.125,1.343c-0.391,0.22-0.765,0.488-1.139,0.74
				C3.668,4.975,3.595,5.048,3.498,5.129c4.663-2.222,9.293-2.335,13.939-0.057c-1.245-1.009-2.677-1.627-4.183-2.116
				c0.114-0.228,0.269-0.276,0.504-0.252c1.627,0.146,3.084,0.749,4.402,1.676C18.283,4.47,18.405,4.592,18.47,4.73z"/>
		</g>
		<g>
		</g>
	</g>
</g>
<g>
	<g id="XMLID_4_">
		<g>
			<rect x="188.705" y="41.802" fill="#FFFFFF" width="1.563" height="4.158"/>
			<rect x="185.588" y="41.802" fill="#FFFFFF" width="1.563" height="4.158"/>
			<path fill="#FFFFFF" d="M192.863,46.481v-7.274h-10.912v9.87h3.125v2.075l2.075-2.075h3.116L192.863,46.481z M179.876,40.313
				l1.041-2.669h13.508v9.357l-4.158,4.15h-3.116l-1.563,2.083h-2.075v-2.083h-3.637V40.313z"/>
		</g>
		<g>
		</g>
	</g>
</g>
</svg>
