<?xml version="1.0" encoding="utf-8"?>
<!-- Generator: Adobe Illustrator 16.0.0, SVG Export Plug-In . SVG Version: 6.00 Build 0)  -->
<!DOCTYPE svg PUBLIC "-//W3C//DTD SVG 1.1//EN" "http://www.w3.org/Graphics/SVG/1.1/DTD/svg11.dtd">
<svg version="1.1" id="Calque_1" xmlns="http://www.w3.org/2000/svg" xmlns:xlink="http://www.w3.org/1999/xlink" x="0px" y="0px"
	 width="1354.991px" height="156.016px" viewBox="0 0 1354.991 156.016" enable-background="new 0 0 1354.991 156.016"
	 xml:space="preserve">
<g>
	<g>
		<path fill="#FFFFFF" d="M1316.103,152.393h-16.128c-22.928,0-41.58-18.653-41.58-41.581c0-5.149,4.175-9.324,9.324-9.324
			s9.324,4.175,9.324,9.324c0,12.645,10.287,22.933,22.932,22.933h16.128c12.645,0,22.933-10.288,22.933-22.933
			s-10.288-22.932-22.933-22.932h-16.128c-22.928,0-41.58-18.653-41.58-41.582s18.652-41.582,41.58-41.582h16.128
			c22.928,0,41.581,18.653,41.581,41.582c0,5.15-4.175,9.325-9.324,9.325s-9.324-4.175-9.324-9.325
			c0-12.645-10.288-22.932-22.933-22.932h-16.128c-12.645,0-22.932,10.287-22.932,22.932s10.287,22.933,22.932,22.933h16.128
			c22.928,0,41.581,18.653,41.581,41.581S1339.03,152.393,1316.103,152.393z"/>
	</g>
	<g>
		<path fill="#FFFFFF" d="M1184.193,151.986c-5.149,0-9.324-4.175-9.324-9.324V13.309c0-5.15,4.175-9.325,9.324-9.325
			s9.324,4.175,9.324,9.325v129.353C1193.518,147.812,1189.343,151.986,1184.193,151.986z"/>
	</g>
	<g>
		<path fill="#FFFFFF" d="M1105.22,151.986h-51.2c-5.149,0-9.324-4.175-9.324-9.324V13.309c0-5.15,4.175-9.325,9.324-9.325
			s9.324,4.175,9.324,9.325v120.029h41.876c5.149,0,9.324,4.175,9.324,9.324S1110.369,151.986,1105.22,151.986z"/>
	</g>
	<g>
		<path fill="#FFFFFF" d="M934.726,151.66c-26.349,0-47.785-21.436-47.785-47.784V51.769c0-26.349,21.437-47.785,47.785-47.785
			S982.51,25.42,982.51,51.769v52.107C982.51,130.225,961.074,151.66,934.726,151.66z M934.726,22.633
			c-16.065,0-29.137,13.07-29.137,29.135v52.107c0,16.065,13.071,29.136,29.137,29.136s29.136-13.07,29.136-29.136V51.769
			C963.861,35.703,950.791,22.633,934.726,22.633z"/>
	</g>
	<g>
		<path fill="#FFFFFF" d="M757.011,151.985c-5.149,0-9.324-4.175-9.324-9.324V13.309c0-5.15,4.175-9.325,9.324-9.325h33.385
			c22.928,0,41.581,18.653,41.581,41.582s-18.653,41.581-41.581,41.581c-5.149,0-9.324-4.175-9.324-9.324
			c0-5.15,4.175-9.325,9.324-9.325c12.645,0,22.933-10.287,22.933-22.932s-10.288-22.932-22.933-22.932h-24.061v120.028
			C766.335,147.811,762.16,151.985,757.011,151.985z"/>
	</g>
	<path fill="#FFFFFF" d="M644.937,151.66c-26.349,0-47.785-21.436-47.785-47.784V51.769c0-26.349,21.436-47.785,47.785-47.785
		s47.784,21.436,47.784,47.785v52.107C692.721,130.225,671.285,151.66,644.937,151.66z M644.937,22.633
		c-16.065,0-29.135,13.07-29.135,29.135v52.107c0,16.065,13.07,29.136,29.135,29.136s29.135-13.07,29.135-29.136V51.769
		C674.072,35.703,661.002,22.633,644.937,22.633z"/>
	<path fill="#FFFFFF" d="M532.863,151.985c-5.15,0-9.325-4.175-9.325-9.324v-32.583c0-12.645-10.287-22.932-22.932-22.932
		c-5.15,0-9.325-4.175-9.325-9.324c0-5.15,4.175-9.325,9.325-9.325c12.645,0,22.932-10.287,22.932-22.932
		s-10.287-22.932-22.932-22.932h-24.061v120.028c0,5.149-4.175,9.324-9.325,9.324s-9.325-4.175-9.325-9.324V13.309
		c0-5.15,4.175-9.325,9.325-9.325h33.385c22.928,0,41.582,18.653,41.582,41.582c0,13-5.997,24.626-15.37,32.257
		c9.373,7.63,15.37,19.256,15.37,32.256v32.583C542.188,147.811,538.013,151.985,532.863,151.985z"/>
	<path fill="#FFFFFF" d="M355.147,151.66c-26.349,0-47.785-21.436-47.785-47.784V51.769c0-26.349,21.436-47.785,47.785-47.785
		s47.785,21.436,47.785,47.785c0,5.15-4.175,9.325-9.325,9.325s-9.325-4.175-9.325-9.325c0-16.065-13.07-29.135-29.135-29.135
		s-29.135,13.07-29.135,29.135v52.107c0,16.065,13.07,29.136,29.135,29.136s29.135-13.07,29.135-29.136
		c0-5.149,4.175-9.324,9.325-9.324s9.325,4.175,9.325,9.324C402.932,130.225,381.496,151.66,355.147,151.66z"/>
	<g>
		<path fill="#FFFFFF" d="M210.253,151.66c-26.349,0-47.785-21.436-47.785-47.784V51.769c0-26.349,21.436-47.785,47.785-47.785
			s47.785,21.436,47.785,47.785c0,5.15-4.175,9.325-9.325,9.325s-9.325-4.175-9.325-9.325c0-16.065-13.07-29.135-29.136-29.135
			s-29.135,13.07-29.135,29.135v52.107c0,16.065,13.07,29.136,29.135,29.136s29.136-13.07,29.136-29.136
			c0-5.149,4.175-9.324,9.325-9.324s9.325,4.175,9.325,9.324C258.038,130.225,236.602,151.66,210.253,151.66z"/>
	</g>
	<g>
		<path fill="#FFFFFF" d="M118.873,151.988c-3.65,0-7.115-2.157-8.609-5.735L65.359,38.658L20.455,146.253
			c-1.983,4.751-7.446,6.994-12.196,5.014c-4.752-1.983-6.997-7.444-5.014-12.197L56.754,10.857
			c1.449-3.472,4.843-5.733,8.605-5.733s7.156,2.261,8.605,5.733l53.51,128.212c1.983,4.753-0.261,10.214-5.014,12.197
			C121.287,151.756,120.069,151.988,118.873,151.988z"/>
	</g>
</g>
</svg>
